<mxfile host="app.diagrams.net" modified="2023-03-27T15:26:59.118Z" agent="Mozilla/5.0 (Windows NT 10.0; Win64; x64) AppleWebKit/537.36 (KHTML, like Gecko) Chrome/111.0.0.0 Safari/537.36" etag="ee3xlZcf40mudmK1kn8X" version="21.1.0" type="device" pages="2">
  <diagram name="Trang-1" id="5ghgzbkAEIAnIh2ZqhBl">
    <mxGraphModel dx="1372" dy="747" grid="1" gridSize="10" guides="1" tooltips="1" connect="1" arrows="1" fold="1" page="1" pageScale="1" pageWidth="827" pageHeight="1169" math="0" shadow="0">
      <root>
        <mxCell id="0" />
        <mxCell id="1" parent="0" />
        <mxCell id="iMVvTMRuPC6_3AW_uvCZ-5" style="edgeStyle=orthogonalEdgeStyle;rounded=0;orthogonalLoop=1;jettySize=auto;html=1;exitX=1;exitY=0.5;exitDx=0;exitDy=0;exitPerimeter=0;entryX=0;entryY=0.5;entryDx=0;entryDy=0;entryPerimeter=0;dashed=1;dashPattern=8 8;endArrow=none;endFill=0;" edge="1" parent="1" source="iMVvTMRuPC6_3AW_uvCZ-2" target="iMVvTMRuPC6_3AW_uvCZ-4">
          <mxGeometry relative="1" as="geometry" />
        </mxCell>
        <mxCell id="iMVvTMRuPC6_3AW_uvCZ-8" style="edgeStyle=orthogonalEdgeStyle;rounded=0;orthogonalLoop=1;jettySize=auto;html=1;exitX=0.5;exitY=1;exitDx=0;exitDy=0;exitPerimeter=0;entryX=0.5;entryY=0;entryDx=0;entryDy=0;" edge="1" parent="1" source="iMVvTMRuPC6_3AW_uvCZ-2" target="iMVvTMRuPC6_3AW_uvCZ-7">
          <mxGeometry relative="1" as="geometry" />
        </mxCell>
        <mxCell id="iMVvTMRuPC6_3AW_uvCZ-2" value="Начало" style="strokeWidth=2;html=1;shape=mxgraph.flowchart.terminator;whiteSpace=wrap;" vertex="1" parent="1">
          <mxGeometry x="300" y="30" width="100" height="60" as="geometry" />
        </mxCell>
        <mxCell id="iMVvTMRuPC6_3AW_uvCZ-4" value="" style="strokeWidth=2;html=1;shape=mxgraph.flowchart.annotation_1;align=left;pointerEvents=1;" vertex="1" parent="1">
          <mxGeometry x="460" y="10" width="50" height="100" as="geometry" />
        </mxCell>
        <mxCell id="iMVvTMRuPC6_3AW_uvCZ-6" value="Функция нахождения максималного элемента и первого элемента, которое больше среднего геометрического&lt;br&gt;Ввод: Матрица А (размер n*m)&lt;br&gt;Вывод: максимальное и положение 1-ое числа больше среднего геометрического" style="text;html=1;strokeColor=none;fillColor=none;align=left;verticalAlign=middle;whiteSpace=wrap;rounded=0;" vertex="1" parent="1">
          <mxGeometry x="470" y="20" width="240" height="80" as="geometry" />
        </mxCell>
        <mxCell id="iMVvTMRuPC6_3AW_uvCZ-10" style="edgeStyle=orthogonalEdgeStyle;rounded=0;orthogonalLoop=1;jettySize=auto;html=1;exitX=0.5;exitY=1;exitDx=0;exitDy=0;entryX=0.5;entryY=0;entryDx=0;entryDy=0;" edge="1" parent="1" source="iMVvTMRuPC6_3AW_uvCZ-7" target="iMVvTMRuPC6_3AW_uvCZ-9">
          <mxGeometry relative="1" as="geometry" />
        </mxCell>
        <mxCell id="iMVvTMRuPC6_3AW_uvCZ-7" value="n - количество строк&lt;br&gt;m- количество столбец&lt;br&gt;posi, posj -&amp;nbsp;индекс строки и столбца элемента больше среднего геометрического&lt;br&gt;average -&amp;nbsp;&amp;nbsp;среднеге геометрическое" style="rounded=0;whiteSpace=wrap;html=1;" vertex="1" parent="1">
          <mxGeometry x="241" y="120" width="219" height="120" as="geometry" />
        </mxCell>
        <mxCell id="iMVvTMRuPC6_3AW_uvCZ-13" style="edgeStyle=orthogonalEdgeStyle;rounded=0;orthogonalLoop=1;jettySize=auto;html=1;exitX=0.5;exitY=1;exitDx=0;exitDy=0;entryX=0.5;entryY=0;entryDx=0;entryDy=0;" edge="1" parent="1" source="iMVvTMRuPC6_3AW_uvCZ-9" target="iMVvTMRuPC6_3AW_uvCZ-11">
          <mxGeometry relative="1" as="geometry" />
        </mxCell>
        <mxCell id="iMVvTMRuPC6_3AW_uvCZ-9" value="posi = -1&lt;br&gt;posj = -1&lt;br&gt;max_element = matrix[0][0]" style="rounded=0;whiteSpace=wrap;html=1;" vertex="1" parent="1">
          <mxGeometry x="255.5" y="260" width="190" height="60" as="geometry" />
        </mxCell>
        <mxCell id="iMVvTMRuPC6_3AW_uvCZ-14" style="edgeStyle=orthogonalEdgeStyle;rounded=0;orthogonalLoop=1;jettySize=auto;html=1;exitX=0.5;exitY=1;exitDx=0;exitDy=0;entryX=0.5;entryY=0;entryDx=0;entryDy=0;" edge="1" parent="1" source="iMVvTMRuPC6_3AW_uvCZ-11" target="iMVvTMRuPC6_3AW_uvCZ-12">
          <mxGeometry relative="1" as="geometry" />
        </mxCell>
        <mxCell id="iMVvTMRuPC6_3AW_uvCZ-11" value="Цикл по i&lt;br&gt;(0 &amp;lt;= i &amp;lt; n)" style="shape=loopLimit;whiteSpace=wrap;html=1;" vertex="1" parent="1">
          <mxGeometry x="300.5" y="340" width="100" height="50" as="geometry" />
        </mxCell>
        <mxCell id="iMVvTMRuPC6_3AW_uvCZ-20" style="edgeStyle=orthogonalEdgeStyle;rounded=0;orthogonalLoop=1;jettySize=auto;html=1;exitX=0.5;exitY=1;exitDx=0;exitDy=0;entryX=0.5;entryY=0;entryDx=0;entryDy=0;entryPerimeter=0;" edge="1" parent="1" source="iMVvTMRuPC6_3AW_uvCZ-12" target="iMVvTMRuPC6_3AW_uvCZ-19">
          <mxGeometry relative="1" as="geometry" />
        </mxCell>
        <mxCell id="iMVvTMRuPC6_3AW_uvCZ-12" value="Цикл по j&lt;br&gt;(0 &amp;lt;= j &amp;lt; m)" style="shape=loopLimit;whiteSpace=wrap;html=1;" vertex="1" parent="1">
          <mxGeometry x="300" y="410" width="100" height="50" as="geometry" />
        </mxCell>
        <mxCell id="iMVvTMRuPC6_3AW_uvCZ-22" style="edgeStyle=orthogonalEdgeStyle;rounded=0;orthogonalLoop=1;jettySize=auto;html=1;exitX=1;exitY=0.5;exitDx=0;exitDy=0;exitPerimeter=0;" edge="1" parent="1" source="iMVvTMRuPC6_3AW_uvCZ-19" target="iMVvTMRuPC6_3AW_uvCZ-21">
          <mxGeometry relative="1" as="geometry" />
        </mxCell>
        <mxCell id="iMVvTMRuPC6_3AW_uvCZ-48" value="&lt;font style=&quot;font-size: 15px;&quot;&gt;Да&lt;/font&gt;" style="edgeLabel;html=1;align=center;verticalAlign=middle;resizable=0;points=[];" vertex="1" connectable="0" parent="iMVvTMRuPC6_3AW_uvCZ-22">
          <mxGeometry x="-0.6014" y="2" relative="1" as="geometry">
            <mxPoint as="offset" />
          </mxGeometry>
        </mxCell>
        <mxCell id="iMVvTMRuPC6_3AW_uvCZ-28" style="edgeStyle=orthogonalEdgeStyle;rounded=0;orthogonalLoop=1;jettySize=auto;html=1;exitX=0.5;exitY=1;exitDx=0;exitDy=0;exitPerimeter=0;entryX=0.5;entryY=0;entryDx=0;entryDy=0;entryPerimeter=0;" edge="1" parent="1" source="iMVvTMRuPC6_3AW_uvCZ-19" target="iMVvTMRuPC6_3AW_uvCZ-26">
          <mxGeometry relative="1" as="geometry" />
        </mxCell>
        <mxCell id="iMVvTMRuPC6_3AW_uvCZ-19" value="matrix[i][j] &amp;gt; max_element" style="strokeWidth=2;html=1;shape=mxgraph.flowchart.decision;whiteSpace=wrap;" vertex="1" parent="1">
          <mxGeometry x="290" y="480" width="120" height="80" as="geometry" />
        </mxCell>
        <mxCell id="iMVvTMRuPC6_3AW_uvCZ-29" style="edgeStyle=orthogonalEdgeStyle;rounded=0;orthogonalLoop=1;jettySize=auto;html=1;exitX=0.5;exitY=1;exitDx=0;exitDy=0;entryX=0.5;entryY=0;entryDx=0;entryDy=0;entryPerimeter=0;" edge="1" parent="1" source="iMVvTMRuPC6_3AW_uvCZ-21" target="iMVvTMRuPC6_3AW_uvCZ-26">
          <mxGeometry relative="1" as="geometry" />
        </mxCell>
        <mxCell id="iMVvTMRuPC6_3AW_uvCZ-21" value="max_element = maxtrix[i][j]" style="rounded=0;whiteSpace=wrap;html=1;" vertex="1" parent="1">
          <mxGeometry x="445.5" y="570" width="120" height="60" as="geometry" />
        </mxCell>
        <mxCell id="iMVvTMRuPC6_3AW_uvCZ-32" style="edgeStyle=orthogonalEdgeStyle;rounded=0;orthogonalLoop=1;jettySize=auto;html=1;exitX=1;exitY=0.5;exitDx=0;exitDy=0;exitPerimeter=0;entryX=0.5;entryY=0;entryDx=0;entryDy=0;entryPerimeter=0;" edge="1" parent="1" source="iMVvTMRuPC6_3AW_uvCZ-26" target="iMVvTMRuPC6_3AW_uvCZ-31">
          <mxGeometry relative="1" as="geometry" />
        </mxCell>
        <mxCell id="iMVvTMRuPC6_3AW_uvCZ-46" value="&lt;font style=&quot;font-size: 15px;&quot;&gt;Да&lt;/font&gt;" style="edgeLabel;html=1;align=center;verticalAlign=middle;resizable=0;points=[];" vertex="1" connectable="0" parent="iMVvTMRuPC6_3AW_uvCZ-32">
          <mxGeometry x="-0.0181" y="3" relative="1" as="geometry">
            <mxPoint x="1" as="offset" />
          </mxGeometry>
        </mxCell>
        <mxCell id="iMVvTMRuPC6_3AW_uvCZ-26" value="matrix[i][j] &amp;gt; average" style="strokeWidth=2;html=1;shape=mxgraph.flowchart.decision;whiteSpace=wrap;" vertex="1" parent="1">
          <mxGeometry x="280" y="670" width="140" height="80" as="geometry" />
        </mxCell>
        <mxCell id="iMVvTMRuPC6_3AW_uvCZ-34" style="edgeStyle=orthogonalEdgeStyle;rounded=0;orthogonalLoop=1;jettySize=auto;html=1;exitX=1;exitY=0.5;exitDx=0;exitDy=0;exitPerimeter=0;entryX=0.5;entryY=0;entryDx=0;entryDy=0;" edge="1" parent="1" source="iMVvTMRuPC6_3AW_uvCZ-31" target="iMVvTMRuPC6_3AW_uvCZ-33">
          <mxGeometry relative="1" as="geometry" />
        </mxCell>
        <mxCell id="iMVvTMRuPC6_3AW_uvCZ-47" value="&lt;font style=&quot;font-size: 15px;&quot;&gt;Да&lt;/font&gt;" style="edgeLabel;html=1;align=center;verticalAlign=middle;resizable=0;points=[];" vertex="1" connectable="0" parent="iMVvTMRuPC6_3AW_uvCZ-34">
          <mxGeometry x="-0.08" y="1" relative="1" as="geometry">
            <mxPoint as="offset" />
          </mxGeometry>
        </mxCell>
        <mxCell id="iMVvTMRuPC6_3AW_uvCZ-45" style="edgeStyle=orthogonalEdgeStyle;rounded=0;orthogonalLoop=1;jettySize=auto;html=1;exitX=0.5;exitY=1;exitDx=0;exitDy=0;exitPerimeter=0;entryX=0.5;entryY=1;entryDx=0;entryDy=0;" edge="1" parent="1" source="iMVvTMRuPC6_3AW_uvCZ-31" target="iMVvTMRuPC6_3AW_uvCZ-39">
          <mxGeometry relative="1" as="geometry" />
        </mxCell>
        <mxCell id="iMVvTMRuPC6_3AW_uvCZ-31" value="posi == -1 or &lt;br&gt;matrix[posi][posj] &amp;gt; matrix[i][j]" style="strokeWidth=2;html=1;shape=mxgraph.flowchart.decision;whiteSpace=wrap;" vertex="1" parent="1">
          <mxGeometry x="414" y="730" width="127.25" height="80" as="geometry" />
        </mxCell>
        <mxCell id="iMVvTMRuPC6_3AW_uvCZ-41" style="edgeStyle=orthogonalEdgeStyle;rounded=0;orthogonalLoop=1;jettySize=auto;html=1;exitX=0.5;exitY=1;exitDx=0;exitDy=0;entryX=0.5;entryY=1;entryDx=0;entryDy=0;" edge="1" parent="1" source="iMVvTMRuPC6_3AW_uvCZ-33" target="iMVvTMRuPC6_3AW_uvCZ-39">
          <mxGeometry relative="1" as="geometry" />
        </mxCell>
        <mxCell id="iMVvTMRuPC6_3AW_uvCZ-33" value="posi = i&lt;br&gt;posj = j" style="rounded=0;whiteSpace=wrap;html=1;" vertex="1" parent="1">
          <mxGeometry x="541.25" y="790" width="120" height="60" as="geometry" />
        </mxCell>
        <mxCell id="iMVvTMRuPC6_3AW_uvCZ-35" value="Конец" style="strokeWidth=2;html=1;shape=mxgraph.flowchart.terminator;whiteSpace=wrap;" vertex="1" parent="1">
          <mxGeometry x="300" y="1060" width="100" height="60" as="geometry" />
        </mxCell>
        <mxCell id="iMVvTMRuPC6_3AW_uvCZ-49" style="edgeStyle=orthogonalEdgeStyle;rounded=0;orthogonalLoop=1;jettySize=auto;html=1;exitX=0.5;exitY=0;exitDx=0;exitDy=0;entryX=0.5;entryY=1;entryDx=0;entryDy=0;" edge="1" parent="1" source="iMVvTMRuPC6_3AW_uvCZ-39" target="iMVvTMRuPC6_3AW_uvCZ-40">
          <mxGeometry relative="1" as="geometry" />
        </mxCell>
        <mxCell id="iMVvTMRuPC6_3AW_uvCZ-50" style="edgeStyle=orthogonalEdgeStyle;rounded=0;orthogonalLoop=1;jettySize=auto;html=1;exitX=0.5;exitY=0;exitDx=0;exitDy=0;entryX=0.5;entryY=0;entryDx=0;entryDy=0;entryPerimeter=0;" edge="1" parent="1" source="iMVvTMRuPC6_3AW_uvCZ-40" target="iMVvTMRuPC6_3AW_uvCZ-35">
          <mxGeometry relative="1" as="geometry" />
        </mxCell>
        <mxCell id="iMVvTMRuPC6_3AW_uvCZ-40" value="i ++&amp;nbsp;" style="shape=loopLimit;whiteSpace=wrap;html=1;direction=west;" vertex="1" parent="1">
          <mxGeometry x="300.5" y="990" width="100" height="50" as="geometry" />
        </mxCell>
        <mxCell id="8l0iFrfAbsW0HL-ecEmK-1" value="" style="edgeStyle=orthogonalEdgeStyle;rounded=0;orthogonalLoop=1;jettySize=auto;html=1;exitX=0.5;exitY=1;exitDx=0;exitDy=0;exitPerimeter=0;" edge="1" parent="1" source="iMVvTMRuPC6_3AW_uvCZ-26" target="iMVvTMRuPC6_3AW_uvCZ-39">
          <mxGeometry relative="1" as="geometry">
            <mxPoint x="351" y="1040" as="targetPoint" />
            <mxPoint x="350" y="820" as="sourcePoint" />
          </mxGeometry>
        </mxCell>
        <mxCell id="iMVvTMRuPC6_3AW_uvCZ-39" value="j ++" style="shape=loopLimit;whiteSpace=wrap;html=1;direction=west;" vertex="1" parent="1">
          <mxGeometry x="300.5" y="910" width="100" height="50" as="geometry" />
        </mxCell>
      </root>
    </mxGraphModel>
  </diagram>
  <diagram id="zRiA_H8QQ0yphXmu-a8N" name="Trang-2">
    <mxGraphModel dx="1372" dy="804" grid="1" gridSize="10" guides="1" tooltips="1" connect="1" arrows="1" fold="1" page="1" pageScale="1" pageWidth="827" pageHeight="1169" math="0" shadow="0">
      <root>
        <mxCell id="0" />
        <mxCell id="1" parent="0" />
        <mxCell id="4j75c9tSZxbnAeOD_2ND-35" style="edgeStyle=orthogonalEdgeStyle;rounded=0;orthogonalLoop=1;jettySize=auto;html=1;exitX=1;exitY=0.5;exitDx=0;exitDy=0;exitPerimeter=0;entryX=0;entryY=0.5;entryDx=0;entryDy=0;entryPerimeter=0;dashed=1;dashPattern=8 8;endArrow=none;endFill=0;" edge="1" parent="1" source="4j75c9tSZxbnAeOD_2ND-37" target="4j75c9tSZxbnAeOD_2ND-38">
          <mxGeometry relative="1" as="geometry" />
        </mxCell>
        <mxCell id="4j75c9tSZxbnAeOD_2ND-36" style="edgeStyle=orthogonalEdgeStyle;rounded=0;orthogonalLoop=1;jettySize=auto;html=1;exitX=0.5;exitY=1;exitDx=0;exitDy=0;exitPerimeter=0;entryX=0.5;entryY=0;entryDx=0;entryDy=0;" edge="1" parent="1" source="4j75c9tSZxbnAeOD_2ND-37" target="4j75c9tSZxbnAeOD_2ND-41">
          <mxGeometry relative="1" as="geometry" />
        </mxCell>
        <mxCell id="4j75c9tSZxbnAeOD_2ND-37" value="Начало" style="strokeWidth=2;html=1;shape=mxgraph.flowchart.terminator;whiteSpace=wrap;" vertex="1" parent="1">
          <mxGeometry x="88.5" y="70" width="100" height="60" as="geometry" />
        </mxCell>
        <mxCell id="4j75c9tSZxbnAeOD_2ND-38" value="" style="strokeWidth=2;html=1;shape=mxgraph.flowchart.annotation_1;align=left;pointerEvents=1;" vertex="1" parent="1">
          <mxGeometry x="249" y="20" width="50" height="160" as="geometry" />
        </mxCell>
        <mxCell id="4j75c9tSZxbnAeOD_2ND-39" value="Функция нахождения максималного элемента и первого элемента, которое больше среднего геометрического&lt;br style=&quot;border-color: var(--border-color);&quot;&gt;Ввод: Матрица А (размер n*m)&lt;br style=&quot;border-color: var(--border-color);&quot;&gt;Вывод: максимальное и положение 1-ое числа больше среднего геометрического" style="text;html=1;strokeColor=none;fillColor=none;align=left;verticalAlign=middle;whiteSpace=wrap;rounded=0;" vertex="1" parent="1">
          <mxGeometry x="259" y="30" width="191" height="140" as="geometry" />
        </mxCell>
        <mxCell id="4j75c9tSZxbnAeOD_2ND-40" style="edgeStyle=orthogonalEdgeStyle;rounded=0;orthogonalLoop=1;jettySize=auto;html=1;exitX=0.5;exitY=1;exitDx=0;exitDy=0;entryX=0.5;entryY=0;entryDx=0;entryDy=0;" edge="1" parent="1" source="4j75c9tSZxbnAeOD_2ND-41" target="4j75c9tSZxbnAeOD_2ND-43">
          <mxGeometry relative="1" as="geometry" />
        </mxCell>
        <mxCell id="4j75c9tSZxbnAeOD_2ND-41" value="n - количество строк&lt;br&gt;m- количество столбец&lt;br&gt;posi, posj -&amp;nbsp;индекс строки и столбца элемента больше среднего геометрического&lt;br&gt;average -&amp;nbsp;&amp;nbsp;среднеге геометрическое" style="rounded=0;whiteSpace=wrap;html=1;" vertex="1" parent="1">
          <mxGeometry x="29.5" y="200" width="219" height="120" as="geometry" />
        </mxCell>
        <mxCell id="vvjoL1GzLByW-30Kr33V-16" style="edgeStyle=orthogonalEdgeStyle;rounded=0;orthogonalLoop=1;jettySize=auto;html=1;exitX=0.5;exitY=1;exitDx=0;exitDy=0;entryX=0.5;entryY=0;entryDx=0;entryDy=0;" edge="1" parent="1" source="4j75c9tSZxbnAeOD_2ND-43" target="vvjoL1GzLByW-30Kr33V-5">
          <mxGeometry relative="1" as="geometry" />
        </mxCell>
        <mxCell id="4j75c9tSZxbnAeOD_2ND-43" value="posi = -1&lt;br&gt;posj = -1&lt;br&gt;max_element = matrix[0][0]" style="rounded=0;whiteSpace=wrap;html=1;" vertex="1" parent="1">
          <mxGeometry x="44" y="340" width="190" height="60" as="geometry" />
        </mxCell>
        <mxCell id="4j75c9tSZxbnAeOD_2ND-44" style="edgeStyle=orthogonalEdgeStyle;rounded=0;orthogonalLoop=1;jettySize=auto;html=1;exitX=0.5;exitY=1;exitDx=0;exitDy=0;entryX=0.5;entryY=0;entryDx=0;entryDy=0;" edge="1" parent="1" source="4j75c9tSZxbnAeOD_2ND-45" target="4j75c9tSZxbnAeOD_2ND-47">
          <mxGeometry relative="1" as="geometry" />
        </mxCell>
        <mxCell id="4j75c9tSZxbnAeOD_2ND-45" value="Цикл по i&lt;br&gt;(0 &amp;lt;= i &amp;lt; n)" style="shape=loopLimit;whiteSpace=wrap;html=1;" vertex="1" parent="1">
          <mxGeometry x="456.5" y="125" width="100" height="50" as="geometry" />
        </mxCell>
        <mxCell id="4j75c9tSZxbnAeOD_2ND-46" style="edgeStyle=orthogonalEdgeStyle;rounded=0;orthogonalLoop=1;jettySize=auto;html=1;exitX=0.5;exitY=1;exitDx=0;exitDy=0;entryX=0.5;entryY=0;entryDx=0;entryDy=0;entryPerimeter=0;" edge="1" parent="1" source="4j75c9tSZxbnAeOD_2ND-47" target="4j75c9tSZxbnAeOD_2ND-51">
          <mxGeometry relative="1" as="geometry" />
        </mxCell>
        <mxCell id="4j75c9tSZxbnAeOD_2ND-47" value="Цикл по j&lt;br&gt;(0 &amp;lt;= j &amp;lt; m)" style="shape=loopLimit;whiteSpace=wrap;html=1;" vertex="1" parent="1">
          <mxGeometry x="456.5" y="205" width="100" height="50" as="geometry" />
        </mxCell>
        <mxCell id="4j75c9tSZxbnAeOD_2ND-48" style="edgeStyle=orthogonalEdgeStyle;rounded=0;orthogonalLoop=1;jettySize=auto;html=1;exitX=1;exitY=0.5;exitDx=0;exitDy=0;exitPerimeter=0;" edge="1" parent="1" source="4j75c9tSZxbnAeOD_2ND-51" target="4j75c9tSZxbnAeOD_2ND-53">
          <mxGeometry relative="1" as="geometry" />
        </mxCell>
        <mxCell id="4j75c9tSZxbnAeOD_2ND-49" value="&lt;font style=&quot;font-size: 15px;&quot;&gt;Да&lt;/font&gt;" style="edgeLabel;html=1;align=center;verticalAlign=middle;resizable=0;points=[];" vertex="1" connectable="0" parent="4j75c9tSZxbnAeOD_2ND-48">
          <mxGeometry x="-0.6014" y="2" relative="1" as="geometry">
            <mxPoint as="offset" />
          </mxGeometry>
        </mxCell>
        <mxCell id="4j75c9tSZxbnAeOD_2ND-50" style="edgeStyle=orthogonalEdgeStyle;rounded=0;orthogonalLoop=1;jettySize=auto;html=1;exitX=0.5;exitY=1;exitDx=0;exitDy=0;exitPerimeter=0;entryX=0.5;entryY=0;entryDx=0;entryDy=0;entryPerimeter=0;" edge="1" parent="1" source="4j75c9tSZxbnAeOD_2ND-51" target="4j75c9tSZxbnAeOD_2ND-57">
          <mxGeometry relative="1" as="geometry" />
        </mxCell>
        <mxCell id="4j75c9tSZxbnAeOD_2ND-51" value="matrix[i][j] &amp;gt; max_element" style="strokeWidth=2;html=1;shape=mxgraph.flowchart.decision;whiteSpace=wrap;" vertex="1" parent="1">
          <mxGeometry x="446.5" y="285" width="120" height="80" as="geometry" />
        </mxCell>
        <mxCell id="4j75c9tSZxbnAeOD_2ND-52" style="edgeStyle=orthogonalEdgeStyle;rounded=0;orthogonalLoop=1;jettySize=auto;html=1;exitX=0.5;exitY=1;exitDx=0;exitDy=0;entryX=0.5;entryY=0;entryDx=0;entryDy=0;entryPerimeter=0;" edge="1" parent="1" source="4j75c9tSZxbnAeOD_2ND-53" target="4j75c9tSZxbnAeOD_2ND-57">
          <mxGeometry relative="1" as="geometry" />
        </mxCell>
        <mxCell id="4j75c9tSZxbnAeOD_2ND-53" value="max_element = maxtrix[i][j]" style="rounded=0;whiteSpace=wrap;html=1;" vertex="1" parent="1">
          <mxGeometry x="602" y="375" width="120" height="60" as="geometry" />
        </mxCell>
        <mxCell id="4j75c9tSZxbnAeOD_2ND-54" style="edgeStyle=orthogonalEdgeStyle;rounded=0;orthogonalLoop=1;jettySize=auto;html=1;exitX=1;exitY=0.5;exitDx=0;exitDy=0;exitPerimeter=0;entryX=0.5;entryY=0;entryDx=0;entryDy=0;entryPerimeter=0;" edge="1" parent="1" source="4j75c9tSZxbnAeOD_2ND-57" target="4j75c9tSZxbnAeOD_2ND-61">
          <mxGeometry relative="1" as="geometry" />
        </mxCell>
        <mxCell id="4j75c9tSZxbnAeOD_2ND-55" value="&lt;font style=&quot;font-size: 15px;&quot;&gt;Да&lt;/font&gt;" style="edgeLabel;html=1;align=center;verticalAlign=middle;resizable=0;points=[];" vertex="1" connectable="0" parent="4j75c9tSZxbnAeOD_2ND-54">
          <mxGeometry x="-0.0181" y="3" relative="1" as="geometry">
            <mxPoint x="1" as="offset" />
          </mxGeometry>
        </mxCell>
        <mxCell id="4j75c9tSZxbnAeOD_2ND-56" style="edgeStyle=orthogonalEdgeStyle;rounded=0;orthogonalLoop=1;jettySize=auto;html=1;exitX=0.5;exitY=1;exitDx=0;exitDy=0;exitPerimeter=0;" edge="1" parent="1" source="4j75c9tSZxbnAeOD_2ND-57">
          <mxGeometry relative="1" as="geometry">
            <mxPoint x="507.5" y="775" as="targetPoint" />
          </mxGeometry>
        </mxCell>
        <mxCell id="4j75c9tSZxbnAeOD_2ND-57" value="matrix[i][j] &amp;gt; average" style="strokeWidth=2;html=1;shape=mxgraph.flowchart.decision;whiteSpace=wrap;" vertex="1" parent="1">
          <mxGeometry x="437" y="475" width="140" height="80" as="geometry" />
        </mxCell>
        <mxCell id="4j75c9tSZxbnAeOD_2ND-58" style="edgeStyle=orthogonalEdgeStyle;rounded=0;orthogonalLoop=1;jettySize=auto;html=1;exitX=1;exitY=0.5;exitDx=0;exitDy=0;exitPerimeter=0;entryX=0.5;entryY=0;entryDx=0;entryDy=0;" edge="1" parent="1" source="4j75c9tSZxbnAeOD_2ND-61" target="4j75c9tSZxbnAeOD_2ND-63">
          <mxGeometry relative="1" as="geometry" />
        </mxCell>
        <mxCell id="4j75c9tSZxbnAeOD_2ND-59" value="&lt;font style=&quot;font-size: 15px;&quot;&gt;Да&lt;/font&gt;" style="edgeLabel;html=1;align=center;verticalAlign=middle;resizable=0;points=[];" vertex="1" connectable="0" parent="4j75c9tSZxbnAeOD_2ND-58">
          <mxGeometry x="-0.08" y="1" relative="1" as="geometry">
            <mxPoint as="offset" />
          </mxGeometry>
        </mxCell>
        <mxCell id="4j75c9tSZxbnAeOD_2ND-60" style="edgeStyle=orthogonalEdgeStyle;rounded=0;orthogonalLoop=1;jettySize=auto;html=1;exitX=0.5;exitY=1;exitDx=0;exitDy=0;exitPerimeter=0;entryX=0.5;entryY=1;entryDx=0;entryDy=0;" edge="1" parent="1" source="4j75c9tSZxbnAeOD_2ND-61" target="4j75c9tSZxbnAeOD_2ND-66">
          <mxGeometry relative="1" as="geometry" />
        </mxCell>
        <mxCell id="4j75c9tSZxbnAeOD_2ND-61" value="posi == -1 or &lt;br&gt;matrix[posi][posj] &amp;gt; matrix[i][j]" style="strokeWidth=2;html=1;shape=mxgraph.flowchart.decision;whiteSpace=wrap;" vertex="1" parent="1">
          <mxGeometry x="557" y="540" width="144.5" height="120" as="geometry" />
        </mxCell>
        <mxCell id="4j75c9tSZxbnAeOD_2ND-62" style="edgeStyle=orthogonalEdgeStyle;rounded=0;orthogonalLoop=1;jettySize=auto;html=1;exitX=0.5;exitY=1;exitDx=0;exitDy=0;entryX=0.5;entryY=1;entryDx=0;entryDy=0;" edge="1" parent="1" source="4j75c9tSZxbnAeOD_2ND-63" target="4j75c9tSZxbnAeOD_2ND-66">
          <mxGeometry relative="1" as="geometry" />
        </mxCell>
        <mxCell id="4j75c9tSZxbnAeOD_2ND-63" value="posi = i&lt;br&gt;posj = j" style="rounded=0;whiteSpace=wrap;html=1;" vertex="1" parent="1">
          <mxGeometry x="707" y="645" width="120" height="60" as="geometry" />
        </mxCell>
        <mxCell id="4j75c9tSZxbnAeOD_2ND-64" value="Конец" style="strokeWidth=2;html=1;shape=mxgraph.flowchart.terminator;whiteSpace=wrap;" vertex="1" parent="1">
          <mxGeometry x="88.5" y="980" width="100" height="60" as="geometry" />
        </mxCell>
        <mxCell id="4j75c9tSZxbnAeOD_2ND-65" style="edgeStyle=orthogonalEdgeStyle;rounded=0;orthogonalLoop=1;jettySize=auto;html=1;exitX=0.5;exitY=0;exitDx=0;exitDy=0;entryX=0.5;entryY=1;entryDx=0;entryDy=0;" edge="1" parent="1" source="4j75c9tSZxbnAeOD_2ND-66" target="4j75c9tSZxbnAeOD_2ND-68">
          <mxGeometry relative="1" as="geometry" />
        </mxCell>
        <mxCell id="4j75c9tSZxbnAeOD_2ND-66" value="j ++" style="shape=loopLimit;whiteSpace=wrap;html=1;direction=west;" vertex="1" parent="1">
          <mxGeometry x="457" y="745" width="100" height="50" as="geometry" />
        </mxCell>
        <mxCell id="vvjoL1GzLByW-30Kr33V-4" style="edgeStyle=orthogonalEdgeStyle;rounded=0;orthogonalLoop=1;jettySize=auto;html=1;exitX=0.5;exitY=0;exitDx=0;exitDy=0;entryX=0.5;entryY=0;entryDx=0;entryDy=0;entryPerimeter=0;" edge="1" parent="1" source="4j75c9tSZxbnAeOD_2ND-68" target="vvjoL1GzLByW-30Kr33V-2">
          <mxGeometry relative="1" as="geometry" />
        </mxCell>
        <mxCell id="4j75c9tSZxbnAeOD_2ND-68" value="i ++&amp;nbsp;" style="shape=loopLimit;whiteSpace=wrap;html=1;direction=west;" vertex="1" parent="1">
          <mxGeometry x="456.5" y="825" width="100" height="50" as="geometry" />
        </mxCell>
        <mxCell id="vvjoL1GzLByW-30Kr33V-3" style="edgeStyle=orthogonalEdgeStyle;rounded=0;orthogonalLoop=1;jettySize=auto;html=1;exitX=0.5;exitY=1;exitDx=0;exitDy=0;exitPerimeter=0;entryX=0.5;entryY=0;entryDx=0;entryDy=0;" edge="1" parent="1" source="vvjoL1GzLByW-30Kr33V-1" target="4j75c9tSZxbnAeOD_2ND-45">
          <mxGeometry relative="1" as="geometry" />
        </mxCell>
        <mxCell id="vvjoL1GzLByW-30Kr33V-1" value="Начало" style="strokeWidth=2;html=1;shape=mxgraph.flowchart.terminator;whiteSpace=wrap;" vertex="1" parent="1">
          <mxGeometry x="456.5" y="35" width="100" height="60" as="geometry" />
        </mxCell>
        <mxCell id="vvjoL1GzLByW-30Kr33V-2" value="Конец" style="strokeWidth=2;html=1;shape=mxgraph.flowchart.terminator;whiteSpace=wrap;" vertex="1" parent="1">
          <mxGeometry x="456.5" y="905" width="100" height="60" as="geometry" />
        </mxCell>
        <mxCell id="vvjoL1GzLByW-30Kr33V-17" style="edgeStyle=orthogonalEdgeStyle;rounded=0;orthogonalLoop=1;jettySize=auto;html=1;exitX=0.5;exitY=1;exitDx=0;exitDy=0;entryX=0.5;entryY=0;entryDx=0;entryDy=0;" edge="1" parent="1" source="vvjoL1GzLByW-30Kr33V-5" target="vvjoL1GzLByW-30Kr33V-6">
          <mxGeometry relative="1" as="geometry" />
        </mxCell>
        <mxCell id="vvjoL1GzLByW-30Kr33V-5" value="thread potok[size]" style="rounded=0;whiteSpace=wrap;html=1;" vertex="1" parent="1">
          <mxGeometry x="38.5" y="430" width="201" height="60" as="geometry" />
        </mxCell>
        <mxCell id="vvjoL1GzLByW-30Kr33V-18" style="edgeStyle=orthogonalEdgeStyle;rounded=0;orthogonalLoop=1;jettySize=auto;html=1;exitX=0.5;exitY=1;exitDx=0;exitDy=0;entryX=0.5;entryY=0;entryDx=0;entryDy=0;" edge="1" parent="1" source="vvjoL1GzLByW-30Kr33V-6" target="vvjoL1GzLByW-30Kr33V-10">
          <mxGeometry relative="1" as="geometry" />
        </mxCell>
        <mxCell id="vvjoL1GzLByW-30Kr33V-6" value="Цикл по k&lt;br&gt;(0 &amp;lt;= k &amp;lt; size)" style="shape=loopLimit;whiteSpace=wrap;html=1;" vertex="1" parent="1">
          <mxGeometry x="88.5" y="510" width="100" height="50" as="geometry" />
        </mxCell>
        <mxCell id="vvjoL1GzLByW-30Kr33V-20" style="edgeStyle=orthogonalEdgeStyle;rounded=0;orthogonalLoop=1;jettySize=auto;html=1;exitX=0.5;exitY=0;exitDx=0;exitDy=0;entryX=0.5;entryY=0;entryDx=0;entryDy=0;" edge="1" parent="1" source="vvjoL1GzLByW-30Kr33V-7" target="vvjoL1GzLByW-30Kr33V-8">
          <mxGeometry relative="1" as="geometry" />
        </mxCell>
        <mxCell id="vvjoL1GzLByW-30Kr33V-7" value="k ++" style="shape=loopLimit;whiteSpace=wrap;html=1;direction=west;" vertex="1" parent="1">
          <mxGeometry x="89.25" y="670" width="100" height="50" as="geometry" />
        </mxCell>
        <mxCell id="vvjoL1GzLByW-30Kr33V-21" style="edgeStyle=orthogonalEdgeStyle;rounded=0;orthogonalLoop=1;jettySize=auto;html=1;exitX=0.5;exitY=1;exitDx=0;exitDy=0;entryX=0.5;entryY=0;entryDx=0;entryDy=0;" edge="1" parent="1" source="vvjoL1GzLByW-30Kr33V-8" target="vvjoL1GzLByW-30Kr33V-13">
          <mxGeometry relative="1" as="geometry" />
        </mxCell>
        <mxCell id="vvjoL1GzLByW-30Kr33V-8" value="Цикл по k&lt;br&gt;(0 &amp;lt;= k &amp;lt; size)" style="shape=loopLimit;whiteSpace=wrap;html=1;" vertex="1" parent="1">
          <mxGeometry x="88.5" y="740" width="100" height="50" as="geometry" />
        </mxCell>
        <mxCell id="vvjoL1GzLByW-30Kr33V-23" style="edgeStyle=orthogonalEdgeStyle;rounded=0;orthogonalLoop=1;jettySize=auto;html=1;exitX=0.5;exitY=0;exitDx=0;exitDy=0;entryX=0.5;entryY=0;entryDx=0;entryDy=0;entryPerimeter=0;" edge="1" parent="1" source="vvjoL1GzLByW-30Kr33V-9" target="4j75c9tSZxbnAeOD_2ND-64">
          <mxGeometry relative="1" as="geometry" />
        </mxCell>
        <mxCell id="vvjoL1GzLByW-30Kr33V-9" value="k ++" style="shape=loopLimit;whiteSpace=wrap;html=1;direction=west;" vertex="1" parent="1">
          <mxGeometry x="89.25" y="900" width="100" height="50" as="geometry" />
        </mxCell>
        <mxCell id="vvjoL1GzLByW-30Kr33V-19" style="edgeStyle=orthogonalEdgeStyle;rounded=0;orthogonalLoop=1;jettySize=auto;html=1;exitX=0.5;exitY=1;exitDx=0;exitDy=0;entryX=0.5;entryY=1;entryDx=0;entryDy=0;" edge="1" parent="1" source="vvjoL1GzLByW-30Kr33V-10" target="vvjoL1GzLByW-30Kr33V-7">
          <mxGeometry relative="1" as="geometry" />
        </mxCell>
        <mxCell id="vvjoL1GzLByW-30Kr33V-10" value="potok[k] = thread(for_parallel, matrix, n, m, max_element, posi, posj, average)" style="rounded=0;whiteSpace=wrap;html=1;" vertex="1" parent="1">
          <mxGeometry x="38.5" y="580" width="200.5" height="60" as="geometry" />
        </mxCell>
        <mxCell id="vvjoL1GzLByW-30Kr33V-22" style="edgeStyle=orthogonalEdgeStyle;rounded=0;orthogonalLoop=1;jettySize=auto;html=1;exitX=0.5;exitY=1;exitDx=0;exitDy=0;entryX=0.5;entryY=1;entryDx=0;entryDy=0;" edge="1" parent="1" source="vvjoL1GzLByW-30Kr33V-13" target="vvjoL1GzLByW-30Kr33V-9">
          <mxGeometry relative="1" as="geometry" />
        </mxCell>
        <mxCell id="vvjoL1GzLByW-30Kr33V-13" value="potok[k].join()" style="rounded=0;whiteSpace=wrap;html=1;" vertex="1" parent="1">
          <mxGeometry x="78.5" y="810" width="120" height="60" as="geometry" />
        </mxCell>
        <mxCell id="vvjoL1GzLByW-30Kr33V-14" style="edgeStyle=orthogonalEdgeStyle;rounded=0;orthogonalLoop=1;jettySize=auto;html=1;exitX=1;exitY=0.5;exitDx=0;exitDy=0;exitPerimeter=0;entryX=0;entryY=0.5;entryDx=0;entryDy=0;entryPerimeter=0;dashed=1;dashPattern=8 8;endArrow=none;endFill=0;" edge="1" parent="1" target="vvjoL1GzLByW-30Kr33V-15">
          <mxGeometry relative="1" as="geometry">
            <mxPoint x="557" y="65" as="sourcePoint" />
          </mxGeometry>
        </mxCell>
        <mxCell id="vvjoL1GzLByW-30Kr33V-15" value="Функция for_parallel&amp;nbsp;&lt;br&gt;Ввод: matrix (n * m), &lt;br&gt;max_elemet, posi, posj&lt;br&gt;Вывод: нет" style="strokeWidth=2;html=1;shape=mxgraph.flowchart.annotation_1;align=left;pointerEvents=1;" vertex="1" parent="1">
          <mxGeometry x="617" y="30" width="50" height="70" as="geometry" />
        </mxCell>
      </root>
    </mxGraphModel>
  </diagram>
</mxfile>
